<svg width="19" height="23" viewBox="0 0 19 23" fill="none" xmlns="http://www.w3.org/2000/svg">
<g clip-path="url(#clip0_40_179)">
<path d="M9.28076 2.97412C9.51514 2.76579 9.73649 2.76579 9.94482 2.97412L18.1089 11.1772C18.3433 11.3856 18.3433 11.5939 18.1089 11.8022L9.94482 20.0054C9.73649 20.2137 9.51514 20.2137 9.28076 20.0054L8.49951 19.2241C8.42139 19.146 8.38232 19.0418 8.38232 18.9116C8.38232 18.7814 8.42139 18.6642 8.49951 18.5601L14.5542 12.5054H1.23389C0.921387 12.5054 0.765137 12.3491 0.765137 12.0366V10.9429C0.765137 10.6304 0.921387 10.4741 1.23389 10.4741H14.5542L8.49951 4.41943C8.29118 4.18506 8.29118 3.9637 8.49951 3.75537L9.28076 2.97412Z" fill="black"/>
</g>
<defs>
<clipPath id="clip0_40_179">
<rect width="17.5" height="22" fill="white" transform="matrix(1 0 0 -1 0.765137 22.4897)"/>
</clipPath>
</defs>
</svg>
