<svg width="49" height="54" viewBox="0 0 49 54" fill="none" xmlns="http://www.w3.org/2000/svg">
<g clip-path="url(#clip0_40_174)">
<path d="M47.9189 40.4899L40.5127 47.3337C39.7627 48.0212 38.9189 48.1774 37.9814 47.8024C37.0439 47.4274 36.5752 46.7399 36.5752 45.7399V41.9899H33.6689C33.3564 41.9899 33.0752 41.8649 32.8252 41.6149L24.3877 32.5212L27.9502 28.6774L35.4502 36.7399H36.5752V32.2399C36.5752 31.2399 37.0439 30.5368 37.9814 30.1306C38.9189 29.7243 39.7627 29.8962 40.5127 30.6462L47.9189 37.3024C48.3564 37.7399 48.5752 38.2712 48.5752 38.8962C48.5752 39.5212 48.3564 40.0524 47.9189 40.4899ZM1.7002 17.2399C1.3877 17.2399 1.12207 17.1306 0.90332 16.9118C0.68457 16.6931 0.575195 16.4274 0.575195 16.1149V13.115C0.575195 12.8025 0.68457 12.5368 0.90332 12.3181C1.12207 12.0993 1.3877 11.99 1.7002 11.99H12.1064C12.4189 11.99 12.7002 12.115 12.9502 12.365L21.3877 21.4587L17.8252 25.3024L10.3252 17.2399H1.7002ZM47.9189 13.3025C48.3564 13.74 48.5752 14.2712 48.5752 14.8962C48.5752 15.5212 48.3564 16.0524 47.9189 16.4899L40.5127 23.3337C39.7627 24.0212 38.9189 24.1774 37.9814 23.8024C37.0439 23.4274 36.5752 22.7399 36.5752 21.7399V17.2399H35.4502L12.9502 41.6149C12.7002 41.8649 12.4189 41.9899 12.1064 41.9899H1.7002C0.950195 41.9899 0.575195 41.6149 0.575195 40.8649V37.8649C0.575195 37.1149 0.950195 36.7399 1.7002 36.7399H10.3252L32.8252 12.365C33.0752 12.115 33.3564 11.99 33.6689 11.99H36.5752V8.23995C36.5752 7.23995 37.0439 6.55245 37.9814 6.17745C38.9189 5.80245 39.7627 5.9587 40.5127 6.6462L47.9189 13.3025Z" fill="#0073EC"/>
</g>
<defs>
<clipPath id="clip0_40_174">
<rect width="48" height="53" fill="white" transform="matrix(1 0 0 -1 0.575195 53.4897)"/>
</clipPath>
</defs>
</svg>
