<svg width="49" height="54" viewBox="0 0 49 54" fill="none" xmlns="http://www.w3.org/2000/svg">
<g clip-path="url(#clip0_40_154)">
<path d="M39.4888 38.896C39.4888 38.896 39.5981 39.0054 39.8169 39.2241C40.0356 39.4429 40.145 39.8647 40.145 40.4897C40.145 41.1147 39.9263 41.646 39.4888 42.0835C39.0513 42.521 38.52 42.7397 37.895 42.7397C37.27 42.7397 36.7388 42.521 36.3013 42.0835C35.8638 41.646 35.645 41.1147 35.645 40.4897C35.645 39.8647 35.8638 39.3335 36.3013 38.896C36.7388 38.4585 37.27 38.2397 37.895 38.2397C38.52 38.2397 39.0513 38.4585 39.4888 38.896ZM30.3013 38.896C30.3013 38.896 30.4106 38.7866 30.6294 38.5679C30.8481 38.3491 31.27 38.2397 31.895 38.2397C32.52 38.2397 33.0513 38.4585 33.4888 38.896C33.9263 39.3335 34.145 39.8647 34.145 40.4897C34.145 41.1147 33.9263 41.646 33.4888 42.0835C33.0513 42.521 32.52 42.7397 31.895 42.7397C31.27 42.7397 30.7388 42.521 30.3013 42.0835C29.8638 41.646 29.645 41.1147 29.645 40.4897C29.645 39.8647 29.8638 39.3335 30.3013 38.896ZM36.3013 25.396C36.3013 25.396 36.4106 25.2866 36.6294 25.0679C36.8481 24.8491 37.27 24.7397 37.895 24.7397C38.52 24.7397 39.0513 24.9585 39.4888 25.396C39.9263 25.8335 40.145 26.3647 40.145 26.9897C40.145 27.6147 39.9263 28.146 39.4888 28.5835C39.0513 29.021 38.52 29.2397 37.895 29.2397C37.27 29.2397 36.7388 29.021 36.3013 28.5835C35.8638 28.146 35.645 27.6147 35.645 26.9897C35.645 26.3647 35.8638 25.8335 36.3013 25.396ZM30.3013 25.396C30.3013 25.396 30.4106 25.2866 30.6294 25.0679C30.8481 24.8491 31.27 24.7397 31.895 24.7397C32.52 24.7397 33.0513 24.9585 33.4888 25.396C33.9263 25.8335 34.145 26.3647 34.145 26.9897C34.145 27.6147 33.9263 28.146 33.4888 28.5835C33.0513 29.021 32.52 29.2397 31.895 29.2397C31.27 29.2397 30.7388 29.021 30.3013 28.5835C29.8638 28.146 29.645 27.6147 29.645 26.9897C29.645 26.3647 29.8638 25.8335 30.3013 25.396ZM48.395 17.9897C48.395 18.8022 48.2075 19.5522 47.8325 20.2397C48.2075 20.9272 48.395 21.6772 48.395 22.4897V31.4897C48.395 32.3022 48.2075 33.0522 47.8325 33.7397C48.2075 34.4272 48.395 35.1772 48.395 35.9897V44.9897C48.395 46.2397 47.9575 47.3022 47.0825 48.1772C46.2075 49.0522 45.145 49.4897 43.895 49.4897H4.89502C3.64502 49.4897 2.58252 49.0522 1.70752 48.1772C0.83252 47.3022 0.39502 46.2397 0.39502 44.9897V35.9897C0.39502 35.1772 0.58252 34.4272 0.95752 33.7397C0.58252 33.0522 0.39502 32.3022 0.39502 31.4897V22.4897C0.39502 21.6772 0.58252 20.9272 0.95752 20.2397C0.58252 19.5522 0.39502 18.8022 0.39502 17.9897V8.98975C0.39502 7.73975 0.83252 6.67725 1.70752 5.80225C2.58252 4.92725 3.64502 4.48975 4.89502 4.48975H43.895C45.145 4.48975 46.2075 4.92725 47.0825 5.80225C47.9575 6.67725 48.395 7.73975 48.395 8.98975V17.9897ZM4.89502 17.9897H43.895V8.98975H4.89502V17.9897ZM43.895 22.4897H4.89502V31.4897H43.895V22.4897ZM43.895 35.9897H4.89502V44.9897H43.895V35.9897ZM39.4888 15.0835C39.4888 15.0835 39.3794 15.1929 39.1606 15.4116C38.9419 15.6304 38.52 15.7397 37.895 15.7397C37.27 15.7397 36.7388 15.521 36.3013 15.0835C35.8638 14.646 35.645 14.1147 35.645 13.4897C35.645 12.8647 35.8638 12.3335 36.3013 11.896C36.7388 11.4585 37.27 11.2397 37.895 11.2397C38.52 11.2397 39.0513 11.4585 39.4888 11.896C39.9263 12.3335 40.145 12.8647 40.145 13.4897C40.145 14.1147 39.9263 14.646 39.4888 15.0835ZM33.4888 15.0835C33.4888 15.0835 33.3794 15.1929 33.1606 15.4116C32.9419 15.6304 32.52 15.7397 31.895 15.7397C31.27 15.7397 30.7388 15.521 30.3013 15.0835C29.8638 14.646 29.645 14.1147 29.645 13.4897C29.645 12.8647 29.8638 12.3335 30.3013 11.896C30.7388 11.4585 31.27 11.2397 31.895 11.2397C32.52 11.2397 33.0513 11.4585 33.4888 11.896C33.9263 12.3335 34.145 12.8647 34.145 13.4897C34.145 14.1147 33.9263 14.646 33.4888 15.0835Z" fill="#0073EC"/>
</g>
<defs>
<clipPath id="clip0_40_154">
<rect width="48" height="53" fill="white" transform="matrix(1 0 0 -1 0.39502 53.4897)"/>
</clipPath>
</defs>
</svg>
