<svg width="48" height="47" viewBox="0 0 48 47" fill="none" xmlns="http://www.w3.org/2000/svg">
<path d="M5.52393 15.4272L15.0864 41.4897C8.43018 38.2085 3.83643 31.4585 3.83643 23.4897C3.83643 20.6772 4.39893 17.8647 5.52393 15.4272ZM37.2114 22.5522C37.2114 24.2397 36.5552 26.2085 35.7114 28.9272L33.7427 35.5835L26.5239 14.2085C27.7427 14.1147 28.7739 14.021 28.7739 14.021C29.8989 13.8335 29.7114 12.2397 28.6802 12.3335C28.6802 12.3335 25.3989 12.6147 23.3364 12.6147C21.3677 12.6147 18.0864 12.3335 18.0864 12.3335C17.0552 12.2397 16.8677 13.9272 17.9927 14.021C17.9927 14.021 19.0239 14.1147 20.0552 14.2085L23.1489 22.646L18.8364 35.771L11.5239 14.2085C12.7427 14.1147 13.8677 14.021 13.8677 14.021C14.8989 13.8335 14.8052 12.2397 13.6802 12.3335C13.6802 12.3335 10.4927 12.6147 8.33643 12.6147C7.96143 12.6147 7.58643 12.6147 7.11768 12.6147C10.6802 7.17725 16.7739 3.61475 23.8052 3.61475C28.9614 3.61475 33.6489 5.5835 37.2114 8.86475C37.1177 8.771 37.0239 8.771 36.9302 8.771C35.0552 8.771 33.6489 10.5522 33.6489 12.3335C33.6489 14.021 34.5864 15.4272 35.6177 17.021C36.3677 18.3335 37.2114 20.021 37.2114 22.5522ZM24.0864 25.271L30.2739 42.0522C30.2739 42.146 30.3677 42.2397 30.3677 42.3335C28.3052 43.0835 26.0552 43.4585 23.8052 43.4585C21.8364 43.4585 19.9614 43.1772 18.0864 42.7085L24.0864 25.271ZM41.2427 13.9272C42.8364 16.8335 43.6802 20.021 43.6802 23.4897C43.6802 30.896 39.7427 37.271 33.7427 40.7397L39.8364 23.1147C41.0552 20.3022 41.4302 18.0522 41.4302 15.9897C41.4302 15.2397 41.3364 14.5835 41.2427 13.9272ZM47.0552 23.4897C47.0552 36.3335 36.5552 46.7397 23.8052 46.7397C10.9614 46.7397 0.555176 36.3335 0.555176 23.4897C0.555176 10.7397 10.9614 0.239746 23.8052 0.239746C36.5552 0.239746 47.0552 10.7397 47.0552 23.4897ZM45.9302 23.4897C45.9302 11.3022 35.9927 1.36475 23.8052 1.36475C11.5239 1.36475 1.58643 11.3022 1.58643 23.4897C1.58643 35.771 11.5239 45.7085 23.8052 45.7085C35.9927 45.7085 45.9302 35.771 45.9302 23.4897Z" fill="#0073EC"/>
<a href="https://www.dreamhost.com/wordpress/shared-wp-hosting/">
<rect fill="black" fill-opacity="0" y="-3.6" width="48" height="55.2"/>
</a>
</svg>
