<svg class="h-[72px] w-auto mr-3 text-blue text-black" viewBox="0 0 32 32" fill="#0073ec" xmlns="http://www.w3.org/2000/svg"><path fill-rule="evenodd" clip-rule="evenodd" d="M31.058 12.3812C31.0574 12.4494 31.037 12.5154 31 12.5714V13.1521C31.0887 13.1674 31.1757 13.1927 31.2592 13.2278C31.4051 13.2891 31.5376 13.3788 31.6492 13.4918C31.7607 13.6048 31.8492 13.7389 31.9093 13.8865C31.9695 14.034 32.0004 14.1921 32 14.3517V19.9678C31.9994 20.1739 31.9469 20.3746 31.85 20.5519V22.5144C31.947 22.6916 31.9995 22.8922 32 23.0983V28.7209C31.9997 29.0428 31.8731 29.3514 31.648 29.5792C31.4229 29.807 31.1176 29.9355 30.7989 29.9365H17V30H12.7288C12.4863 30.1356 12.2358 30.259 11.9783 30.3692C11.007 30.7908 9.96022 31.0055 8.9032 30.9999C7.84616 31.0057 6.7993 30.791 5.82808 30.3692C4.88826 29.9654 4.03453 29.3817 3.31391 28.6502C2.59647 27.9154 2.02303 27.0499 1.62382 26.0995C1.21214 25.116 1 24.0589 1 22.9909C1 21.9229 1.21214 20.8657 1.62382 19.8822C2.30261 18.253 3.4939 16.9067 5 16.0431V15.2086L4.99729 15.2067C4.93759 15.1654 4.8887 15.11 4.85482 15.0454C4.82094 14.9808 4.80307 14.9088 4.80273 14.8357V14.3517C4.80273 14.0291 4.92951 13.7198 5.15522 13.4916C5.38092 13.2634 5.68709 13.1351 6.00645 13.1347H6.15V12.4089C6.1471 12.3953 6.1449 12.3815 6.1434 12.3676C6.137 12.303 6.13188 12.2384 6.12804 12.1737C6.06385 11.0587 6.3838 9.95564 7.03355 9.05182C7.6833 8.14801 8.6228 7.49918 9.69249 7.21553C9.79355 6.74364 9.99092 6.29821 10.272 5.90768C10.5531 5.51715 10.9117 5.19009 11.325 4.94739C11.7383 4.70468 12.1971 4.55166 12.6722 4.49809C13.1473 4.44452 13.6283 4.49158 14.0844 4.63626C14.9251 3.2492 16.1838 2.17068 17.6759 1.55889C19.1679 0.947103 20.8149 0.834228 22.3751 1.23682C23.9353 1.63942 25.3268 2.53629 26.3454 3.79592C27.364 5.05555 27.9561 6.61165 28.035 8.236C28.9105 8.51018 29.6762 9.06003 30.2201 9.80516C30.764 10.5503 31.0576 11.4516 31.058 12.3773V12.3812Z" fill="#0073ec" fillOpacity="0.25"></path><path d="M27.742 26.6032C27.8779 26.695 28.0378 26.744 28.2014 26.744C28.31 26.7442 28.4175 26.7228 28.5179 26.681C28.6183 26.6391 28.7095 26.5777 28.7863 26.5002C28.8631 26.4227 28.9241 26.3306 28.9656 26.2293C29.0071 26.1279 29.0283 26.0193 29.0282 25.9096C29.0283 25.7444 28.9799 25.5829 28.8891 25.4455C28.7984 25.3081 28.6693 25.201 28.5182 25.1377C28.3671 25.0744 28.2009 25.0578 28.0405 25.0899C27.88 25.1221 27.7326 25.2016 27.617 25.3183C27.5013 25.4351 27.4225 25.5838 27.3905 25.7458C27.3585 25.9078 27.3749 26.0757 27.4374 26.2284C27.5 26.381 27.606 26.5114 27.742 26.6032Z" fill="#0073ec"></path><path d="M25.8865 25.4455C25.9773 25.5829 26.0257 25.7444 26.0256 25.9096H26.0243C26.0241 26.1307 25.9371 26.3427 25.7824 26.4992C25.6276 26.6556 25.4177 26.7436 25.1988 26.744C25.0352 26.744 24.8754 26.695 24.7394 26.6032C24.6034 26.5114 24.4974 26.381 24.4349 26.2284C24.3723 26.0757 24.356 25.9078 24.3879 25.7458C24.4199 25.5838 24.4987 25.4351 24.6144 25.3183C24.7301 25.2016 24.8774 25.1221 25.0379 25.0899C25.1983 25.0578 25.3646 25.0744 25.5156 25.1377C25.6667 25.201 25.7958 25.3081 25.8865 25.4455Z" fill="#0073ec"></path><path d="M18.0332 21.8245L30.7989 21.8879C31.1169 21.888 31.422 22.0155 31.6471 22.2424C31.8723 22.4693 31.9992 22.7771 32 23.0983V28.7209C31.9997 29.0428 31.8731 29.3514 31.648 29.5792C31.4229 29.807 31.1176 29.9355 30.7989 29.9365H15.1087C15.0287 29.936 14.9502 29.9139 14.8815 29.8724C14.8128 29.8309 14.7564 29.7715 14.7181 29.7005C14.6799 29.6295 14.6611 29.5495 14.6639 29.4687C14.6666 29.3879 14.6907 29.3093 14.7337 29.2411L14.7395 29.2321C14.7795 29.1683 14.8349 29.1158 14.9005 29.0796C14.9661 29.0433 15.0397 29.0244 15.1145 29.0246H30.8046C30.8838 29.0246 30.9597 28.9929 31.0157 28.9365C31.0717 28.88 31.1033 28.8034 31.1035 28.7235V23.1009C31.1035 23.0209 31.072 22.9441 31.0159 22.8875C30.9599 22.8309 30.8839 22.7991 30.8046 22.7991L18.0377 22.7358C17.9342 22.7356 17.8342 22.6986 17.755 22.6314C17.6758 22.5642 17.6225 22.4709 17.6045 22.3681L17.6013 22.3526C17.5892 22.2883 17.5914 22.2222 17.6075 22.1589C17.6236 22.0956 17.6534 22.0366 17.6946 21.9862C17.7358 21.9358 17.7875 21.8952 17.8461 21.8673C17.9046 21.8393 17.9685 21.8247 18.0332 21.8245Z" fill="#0073ec"></path><path d="M22.7256 25.4483C22.8164 25.5856 22.8649 25.7471 22.8649 25.9122C22.8649 26.1335 22.7773 26.3458 22.6224 26.5024C22.4674 26.659 22.2573 26.747 22.0381 26.7472C21.8746 26.7472 21.7148 26.6982 21.5788 26.6065C21.4428 26.5147 21.3369 26.3843 21.2743 26.2317C21.2117 26.0792 21.1953 25.9113 21.2272 25.7493C21.2591 25.5873 21.3379 25.4385 21.4535 25.3218C21.5691 25.205 21.7165 25.1255 21.8768 25.0933C22.0372 25.061 22.2035 25.0776 22.3545 25.1408C22.5056 25.204 22.6347 25.311 22.7256 25.4483Z" fill="#0073ec"></path><path d="M6.00645 13.1347H30.7989C30.9569 13.1349 31.1133 13.1665 31.2592 13.2278C31.4051 13.2891 31.5376 13.3788 31.6492 13.4918C31.7607 13.6048 31.8492 13.7389 31.9093 13.8865C31.9695 14.034 32.0004 14.1921 32 14.3517V19.9678C31.999 20.2892 31.8721 20.5971 31.6471 20.8244C31.4221 21.0517 31.1171 21.1798 30.7989 21.1808H18.036C17.9444 21.1805 17.8551 21.1518 17.7802 21.0987C17.7052 21.0455 17.6482 20.9704 17.6168 20.8836L17.6136 20.8745C17.5895 20.8064 17.5818 20.7335 17.5914 20.6618C17.6009 20.5902 17.6273 20.5218 17.6683 20.4626C17.7094 20.4034 17.7639 20.3549 17.8273 20.3213C17.8907 20.2877 17.9612 20.27 18.0328 20.2696H30.8053C30.8445 20.2696 30.8834 20.2618 30.9196 20.2466C30.9559 20.2315 30.9888 20.2092 31.0166 20.1812C31.0443 20.1532 31.0663 20.1199 31.0814 20.0833C31.0964 20.0467 31.1041 20.0074 31.1041 19.9678V14.3517C31.1041 14.312 31.0964 14.2727 31.0813 14.236C31.0662 14.1994 31.0442 14.1661 31.0164 14.138C30.9885 14.11 30.9555 14.0878 30.9192 14.0727C30.8829 14.0575 30.8439 14.0498 30.8046 14.0499H6.00645C5.92719 14.0499 5.85118 14.0817 5.79514 14.1383C5.73909 14.1949 5.7076 14.2716 5.7076 14.3517V14.8312C5.70742 14.9225 5.67987 15.0116 5.62859 15.0869C5.5773 15.1621 5.50468 15.2198 5.42027 15.2526L5.41003 15.2565C5.34238 15.2825 5.26948 15.2915 5.1976 15.2829C5.12572 15.2742 5.05698 15.2481 4.99729 15.2067C4.93759 15.1654 4.8887 15.11 4.85482 15.0454C4.82094 14.9808 4.80307 14.9088 4.80273 14.8357V14.3517C4.80273 14.0291 4.92951 13.7198 5.15522 13.4916C5.38092 13.2634 5.68709 13.1351 6.00645 13.1347Z" fill="#0073ec"></path><path d="M22.7256 16.6958C22.8164 16.8331 22.8649 16.9946 22.8649 17.1597C22.8648 17.381 22.777 17.5932 22.6222 17.7497C22.4673 17.9063 22.2573 17.9944 22.0381 17.9947C21.8746 17.9947 21.7148 17.9457 21.5788 17.854C21.4428 17.7622 21.3369 17.6318 21.2743 17.4793C21.2117 17.3267 21.1953 17.1588 21.2272 16.9968C21.2591 16.8349 21.3379 16.6861 21.4535 16.5693C21.5691 16.4525 21.7165 16.373 21.8768 16.3408C22.0372 16.3086 22.2035 16.3251 22.3545 16.3883C22.5056 16.4515 22.6347 16.5585 22.7256 16.6958Z" fill="#0073ec"></path><path d="M28.8895 16.6958C28.9803 16.8331 29.0288 16.9946 29.0288 17.1597L29.0282 17.1565C29.0286 17.2664 29.0075 17.3752 28.9662 17.4769C28.9249 17.5785 28.8641 17.6709 28.7874 17.7488C28.7106 17.8267 28.6194 17.8885 28.5189 17.9307C28.4185 17.9729 28.3108 17.9946 28.202 17.9947C28.0385 17.9947 27.8786 17.9457 27.7427 17.854C27.6067 17.7622 27.5007 17.6318 27.4381 17.4793C27.3756 17.3267 27.3592 17.1588 27.3911 16.9968C27.423 16.8349 27.5017 16.6861 27.6174 16.5693C27.733 16.4525 27.8803 16.373 28.0407 16.3408C28.2011 16.3086 28.3673 16.3251 28.5184 16.3883C28.6695 16.4515 28.7986 16.5585 28.8895 16.6958Z" fill="#0073ec"></path><path d="M25.8856 16.6958C25.9764 16.8331 26.0249 16.9946 26.0249 17.1597L26.0243 17.1565C26.0247 17.2664 26.0037 17.3752 25.9623 17.4769C25.921 17.5785 25.8602 17.6709 25.7835 17.7488C25.7067 17.8267 25.6155 17.8885 25.5151 17.9307C25.4146 17.9729 25.3069 17.9946 25.1981 17.9947C25.0346 17.9947 24.8748 17.9457 24.7388 17.854C24.6028 17.7622 24.4969 17.6318 24.4343 17.4793C24.3717 17.3267 24.3553 17.1588 24.3872 16.9968C24.4191 16.8349 24.4979 16.6861 24.6135 16.5693C24.7291 16.4525 24.8765 16.373 25.0368 16.3408C25.1972 16.3086 25.3635 16.3251 25.5145 16.3883C25.6656 16.4515 25.7947 16.5585 25.8856 16.6958Z" fill="#0073ec"></path><path d="M6.70113 12.6908C6.65027 12.7137 6.59521 12.7256 6.53952 12.7257C6.44137 12.7259 6.34659 12.6895 6.27346 12.6234C6.20032 12.5573 6.15399 12.4662 6.1434 12.3676C6.137 12.303 6.13188 12.2384 6.12804 12.1737C6.06385 11.0587 6.3838 9.95564 7.03355 9.05182C7.6833 8.14801 8.6228 7.49918 9.69249 7.21553C9.79355 6.74364 9.99092 6.29821 10.272 5.90768C10.5531 5.51715 10.9117 5.19009 11.325 4.94739C11.7383 4.70468 12.1971 4.55166 12.6722 4.49809C13.1473 4.44452 13.6283 4.49158 14.0844 4.63626C14.9251 3.2492 16.1838 2.17068 17.6759 1.55889C19.1679 0.947103 20.8149 0.834228 22.3751 1.23682C23.9353 1.63942 25.3268 2.53629 26.3454 3.79592C27.364 5.05555 27.9561 6.61165 28.035 8.236C28.9105 8.51018 29.6762 9.06003 30.2201 9.80516C30.764 10.5503 31.0576 11.4516 31.058 12.3773V12.3812C31.0572 12.4734 31.0202 12.5614 30.9552 12.6261C30.8902 12.6908 30.8025 12.7268 30.7112 12.7263H30.6088C30.5632 12.7263 30.518 12.7172 30.4759 12.6995C30.4337 12.6818 30.3955 12.6559 30.3633 12.6232C30.3311 12.5905 30.3057 12.5518 30.2884 12.5091C30.2711 12.4665 30.2623 12.4208 30.2626 12.3747V12.3314C30.2556 11.5401 29.9842 10.7743 29.4925 10.1581C29.0007 9.54195 28.3173 9.11152 27.5531 8.93656C27.4666 8.91592 27.3894 8.86643 27.3342 8.79607C27.2789 8.72572 27.2487 8.6386 27.2485 8.54879C27.2152 4.83079 24.1928 1.80688 20.5112 1.80688C19.3064 1.80746 18.1237 2.13398 17.086 2.75248C16.0484 3.37099 15.1938 4.25889 14.611 5.32389C14.563 5.41163 14.4843 5.47809 14.3903 5.51025C14.2963 5.54241 14.1938 5.53795 14.1029 5.49774C13.773 5.35362 13.4173 5.27949 13.0579 5.27995C12.4179 5.28173 11.8002 5.51761 11.3191 5.94392C10.838 6.37024 10.5261 6.95812 10.4412 7.59877C10.4302 7.68256 10.3934 7.76072 10.336 7.8222C10.2786 7.88368 10.2034 7.92534 10.1212 7.9413C9.18002 8.13198 8.33839 8.65892 7.7507 9.4255C7.16301 10.1921 6.86864 11.1469 6.92156 12.1149C6.92476 12.1705 6.92924 12.2267 6.935 12.2823C6.94073 12.3383 6.93477 12.3948 6.91752 12.4483C6.90026 12.5017 6.87208 12.5509 6.83481 12.5927C6.79753 12.6345 6.75199 12.6679 6.70113 12.6908Z" fill="#0073ec"></path><path d="M24.59 5.73539C24.5261 5.77621 24.452 5.79779 24.3765 5.79761C24.3178 5.79769 24.2598 5.78463 24.2067 5.75938C24.1535 5.73412 24.1066 5.6973 24.0693 5.65155C23.6375 5.1201 23.0945 4.69186 22.4793 4.39764C21.8641 4.10342 21.192 3.95051 20.5112 3.94992C20.4577 3.95209 20.4042 3.94331 20.3541 3.9241C20.304 3.90489 20.2582 3.87566 20.2195 3.83815C20.1809 3.80063 20.1501 3.75562 20.1291 3.70581C20.1081 3.65599 20.0972 3.60241 20.0972 3.54826C20.0972 3.49411 20.1081 3.44053 20.1291 3.39071C20.1501 3.3409 20.1809 3.29589 20.2195 3.25837C20.2582 3.22086 20.304 3.19163 20.3541 3.17242C20.4042 3.15321 20.4577 3.14443 20.5112 3.1466C21.3093 3.14674 22.0973 3.32556 22.8187 3.6702C23.54 4.01484 24.1768 4.51672 24.683 5.13971C24.7313 5.19839 24.762 5.26978 24.7716 5.34549C24.7812 5.4212 24.7692 5.49809 24.737 5.56715C24.7048 5.63621 24.6538 5.69457 24.59 5.73539Z" fill="#0073ec"></path><path d="M13.0634 24.3623C12.979 24.643 12.8735 25.0025 12.7468 25.441C12.6205 25.88 12.461 26.4287 12.2682 27.0869L9.82633 19.7543C9.94633 19.7419 10.067 19.7331 10.1878 19.7265C10.3151 19.7197 10.4419 19.7046 10.5673 19.6812C10.7603 19.6564 10.8441 19.5592 10.8203 19.3889C10.8088 19.3159 10.7699 19.2503 10.7119 19.2054C10.656 19.1585 10.5857 19.1326 10.5131 19.1323C9.80127 19.1689 9.31285 19.2054 9.04779 19.242C8.67811 19.2793 8.30568 19.2793 7.93601 19.242L7.22108 19.1872L6.96807 19.1506C6.9347 19.1384 6.89872 19.1354 6.86381 19.1418C6.82889 19.1482 6.79628 19.1639 6.76928 19.1872C6.71098 19.2318 6.6721 19.2976 6.66085 19.3706C6.64848 19.4043 6.64531 19.4407 6.65167 19.4761C6.65803 19.5115 6.67369 19.5445 6.697 19.5716C6.74145 19.6298 6.80598 19.669 6.87771 19.6812C6.89 19.6812 6.9594 19.69 7.0859 19.7083C7.21241 19.7265 7.39023 19.7485 7.61939 19.7726L8.68491 22.6624L7.20156 27.0877L4.74378 19.755C4.87607 19.7426 5.00257 19.7338 5.12329 19.7273C5.25063 19.7205 5.37741 19.7054 5.5028 19.6819C5.69557 19.6576 5.78015 19.5601 5.75653 19.3896C5.74458 19.3168 5.70585 19.2513 5.6481 19.2062C5.59189 19.1593 5.52143 19.1335 5.44859 19.1331C5.05297 19.191 4.65458 19.2276 4.25512 19.2427C3.8932 19.2549 3.56766 19.2549 3.27851 19.2427C3.88047 18.3175 4.6969 17.5551 5.65678 17.0217C6.64923 16.4643 7.76799 16.1774 8.90322 16.1892C9.75475 16.1837 10.5993 16.3453 11.3899 16.665C12.1536 16.9725 12.8555 17.4184 13.461 17.9805C13.2582 17.9559 13.0526 17.9843 12.8639 18.0631C12.6711 18.142 12.4964 18.3218 12.3398 18.6025C12.2308 18.813 12.1927 19.0537 12.2313 19.288C12.27 19.5467 12.3429 19.7989 12.4482 20.0379C12.5535 20.2819 12.6775 20.5172 12.819 20.7417C12.9339 20.919 13.0396 21.1022 13.1357 21.2905C13.3148 21.606 13.4171 21.9599 13.4342 22.3232C13.4614 22.7529 13.4092 23.1839 13.2802 23.5942C13.232 23.7891 13.1598 24.0451 13.0634 24.3623Z" fill="#0073ec"></path><path d="M14.872 20.5955C14.8836 20.461 14.8901 20.3302 14.8901 20.2023C14.8891 20.0704 14.8765 19.9388 14.8525 19.8091C15.6523 21.3471 15.843 23.1353 15.386 24.8103C15.2273 25.3801 14.9968 25.9269 14.6999 26.4372C14.4047 26.9421 14.0493 27.4085 13.6416 27.8258C13.2344 28.2444 12.7723 28.6044 12.2682 28.8958C12.3405 28.7004 12.4549 28.3713 12.6115 27.9084C12.7682 27.4455 12.9368 26.9549 13.1176 26.4365C13.2978 25.9171 13.4665 25.4201 13.6236 24.9455C13.7807 24.471 13.8954 24.1299 13.9677 23.9223C14.1363 23.4351 14.311 22.9235 14.4918 22.3876C14.6828 21.806 14.8103 21.2051 14.872 20.5955Z" fill="#0073ec"></path><path d="M2.17538 22.9905C2.17327 23.6464 2.26457 24.2991 2.44646 24.9287C2.62238 25.5396 2.88433 26.1217 3.22427 26.6572C3.56002 27.185 3.96462 27.6646 4.42714 28.0831C4.88938 28.5027 5.41042 28.8509 5.97338 29.1165L2.73561 20.2659C2.36343 21.1248 2.17262 22.0528 2.17538 22.9905Z" fill="#0073ec"></path><path d="M7.93598 29.7399C7.62158 29.6921 7.3104 29.6247 7.00419 29.5382L9.02969 23.6505L11.1463 29.4103C10.1205 29.7907 9.01648 29.9041 7.93598 29.7399Z" fill="#0073ec"></path><path fill-rule="evenodd" clip-rule="evenodd" d="M14.5012 17.3403C15.2245 18.069 15.8018 18.9321 16.2014 19.8822V19.8858C16.6131 20.8694 16.8252 21.9265 16.8252 22.9945C16.8252 24.0625 16.6131 25.1196 16.2014 26.1032C15.3947 28.0255 13.8803 29.5553 11.9783 30.3692C11.007 30.7908 9.96022 31.0055 8.9032 30.9999C7.84616 31.0057 6.7993 30.791 5.82808 30.3692C4.88826 29.9654 4.03453 29.3817 3.31391 28.6502C2.59647 27.9154 2.02303 27.0499 1.62382 26.0995C1.21214 25.116 1 24.0589 1 22.9909C1 21.9229 1.21214 20.8657 1.62382 19.8822C2.42283 17.9644 3.93197 16.4387 5.8288 15.6308C6.7998 15.2091 7.8464 14.9944 8.9032 15.0001C9.96022 14.9945 11.007 15.2092 11.9783 15.6308C12.9183 16.0348 13.7743 16.6148 14.5012 17.3403ZM11.7607 29.8517C13.5264 29.0905 14.9327 27.6689 15.686 25.8839C16.0676 24.9695 16.2642 23.987 16.2642 22.9945C16.2642 22.002 16.0676 21.0195 15.686 20.1051C15.3134 19.2232 14.7759 18.4224 14.1029 17.7466C13.4282 17.0719 12.6336 16.5321 11.7607 16.1556C10.8583 15.7635 9.88541 15.5644 8.9032 15.5709C7.92099 15.5644 6.94807 15.7635 6.04566 16.1556C5.17301 16.5324 4.37843 17.0722 3.70354 17.7466C3.03074 18.4224 2.49343 19.2232 2.12116 20.1051C1.73902 21.0194 1.54213 22.0019 1.54213 22.9945C1.54213 23.9871 1.73902 24.9696 2.12116 25.8839C2.87384 27.669 4.28005 29.0907 6.04566 29.8517C6.94807 30.2439 7.92099 30.4429 8.9032 30.4364C9.88541 30.4429 10.8583 30.2439 11.7607 29.8517Z" fill="#0073ec"></path><defs><radialGradient id="paint0_radial_68_6441black" cx="0" cy="0" r="1" gradientUnits="userSpaceOnUse" gradientTransform="translate(14.5903 19.5915) rotate(14.7795) scale(18.7404 18.3942)"><stop stopColor="#0073ec"></stop><stop offset="1" stopColor="#0073ec" stopOpacity="0"></stop></radialGradient></defs></svg>
